<svg width="30" height="30" viewBox="0 0 30 30" fill="none" xmlns="http://www.w3.org/2000/svg">
<g id="Google logo" clip-path="url(#clip0_1_692)">
<path id="Vector" d="M29.9842 15.2806C29.9842 14.0516 29.8821 13.1547 29.6612 12.2245H15.2988V17.772H23.7292C23.5593 19.1506 22.6415 21.2268 20.6018 22.6219L20.5732 22.8077L25.1143 26.2454L25.429 26.2761C28.3184 23.6684 29.9842 19.8316 29.9842 15.2806" fill="#4285F4"/>
<path id="Vector_2" d="M15.2988 29.897C19.429 29.897 22.8963 28.5682 25.4289 26.2761L20.6018 22.622C19.3101 23.5023 17.5763 24.1168 15.2988 24.1168C11.2535 24.1168 7.82019 21.5092 6.59629 17.905L6.4169 17.9198L1.69496 21.4909L1.63321 21.6586C4.14873 26.5418 9.31581 29.897 15.2988 29.897Z" fill="#34A853"/>
<path id="Vector_3" d="M6.5963 17.905C6.27336 16.9748 6.08647 15.9782 6.08647 14.9485C6.08647 13.9186 6.27336 12.9221 6.57931 11.992L6.57075 11.7939L1.78965 8.1655L1.63322 8.23821C0.596448 10.2646 0.00154877 12.5401 0.00154877 14.9485C0.00154877 17.3568 0.596448 19.6322 1.63322 21.6586L6.5963 17.905" fill="#FBBC05"/>
<path id="Vector_4" d="M15.2988 5.78004C18.1712 5.78004 20.1089 6.99252 21.2137 8.00576L25.5309 3.8866C22.8795 1.47824 19.429 0 15.2988 0C9.31582 0 4.14874 3.35507 1.63321 8.2382L6.57931 11.992C7.8202 8.38774 11.2536 5.78004 15.2988 5.78004" fill="#EB4335"/>
</g>
<defs>
<clipPath id="clip0_1_692">
<rect width="30" height="30" fill="white"/>
</clipPath>
</defs>
</svg>
